<svg version="1.1" xmlns="http://www.w3.org/2000/svg" viewBox="0 0 1357.16796875 748.376953125" width="2714.3359375" height="1496.75390625">
  <!-- svg-source:excalidraw -->
  
  <defs>
    <style>
      @font-face {
        font-family: "Virgil";
        src: url("https://excalidraw.com/FG_Virgil.woff2");
      }
      @font-face {
        font-family: "Cascadia";
        src: url("https://excalidraw.com/Cascadia.woff2");
      }
    </style>
  </defs>
  <g transform="translate(58.171875 14.552734375) rotate(0 245.115234375 219.982421875)"><path d="M0.06622195766151671 0.046994279073729835 C185.76012604537755 -2.2019885740100005, 373.06990929478957 -1.999863088930021, 490.9151051982568 0.3883316182275671 M0.3447106156706265 -0.03126566006216856 C168.73644577425742 0.5714219986905227, 337.610538294861 0.8792316065446677, 490.46324806128445 0.2729298677888926 M489.7396856176465 -0.5642278679720776 C488.94422094263086 93.74148795932, 489.0075626658295 186.99596446841397, 490.2339408876953 439.5682013661244 M490.47736567053516 -0.05301320238879586 C489.44916886922414 118.44495498100247, 489.49331210707754 237.00091378479604, 490.58341290622974 439.91181795611493 M490.995407069476 440.78413814041005 C305.24020483608103 441.0980985862252, 118.44805182702869 440.58189483990725, 0.2652738162894882 440.471148253638 M490.23513847001794 439.78682149436753 C371.8059320988777 440.72527761567494, 253.3324343870244 440.1866960284906, -0.27806405868365597 439.72804499374064 M-0.5545433104615874 439.63674240870967 C0.37621099200635255 343.805684208649, -0.682417850674437 246.53697265368277, -0.7601809221634145 -0.6493756189329289 M-0.05956367780199302 439.7699935856197 C0.2343050947508854 306.5896288899409, -0.5490110394128296 174.00372396260957, -0.034524496522338084 0.4700235608433246" stroke="#000000" stroke-width="1" fill="none"></path></g><g transform="translate(70.58203125 105.498046875) rotate(0 149.015625 149.015625)"><path d="M-1.0420442049073058 -1.2472174805580192 C65.96495255140576 0.847138377945684, 130.48914972841712 1.203383848163297, 298.8989950677148 -0.6540811887246073 M-0.5745683566805415 0.02520234857914137 C77.3893625688506 -1.2739899041406688, 155.20685940862043 -1.1316510543793337, 297.96126372779577 -0.3720452460535553 M299.42832547662607 0.32270976833575954 C296.86793151590666 98.12722355076909, 296.77877067440096 192.86439277139505, 297.9510949988703 297.3637821177237 M298.6984456329761 0.17269083846781874 C296.3223429348185 118.13524937976972, 296.69435397812646 235.84732787988077, 297.4014791431386 298.30677034260935 M299.4459107326456 298.6768626852197 C208.53868175498403 297.3001644957548, 115.83496678284897 299.06545511665263, -1.1491846859719927 298.7122708459395 M297.50603174290137 298.1499018421689 C234.3699016127532 299.31506620080745, 170.86142846432955 298.93026032462865, -0.18652329342132254 298.2644180593398 M-1.1075703077831263 298.10192230070834 C0.96809942525775 193.43046285899564, 2.620345226862267 87.7430468337089, -0.0795803066477048 0.5568910086417055 M0.681764467369851 298.7631069350795 C-0.6561994726030329 216.02239055036694, -0.5356315337523659 133.69516407954848, -0.07908556491657277 -0.6049983128845677" stroke="#000000" stroke-width="1" fill="none"></path></g><g transform="translate(79.015625 110.576171875) rotate(0 93.5 12.5)"><text x="0" y="18" font-family="Virgil, Segoe UI Emoji" font-size="20px" fill="#000000" text-anchor="start" style="white-space: pre;" direction="ltr">sandbox3 (k8s 1.10)</text></g><g transform="translate(814.1640625 106.904296875) rotate(0 149.015625 149.015625)"><path d="M-1.4269759875810981 0.03773042280897621 C65.40066461753786 1.0213274995375654, 129.01853688011215 1.405065142042671, 297.1883556831699 1.0797427936920603 M-0.2795182929642019 -0.03728169999093493 C93.63940068474224 -1.7282148387265805, 186.72303894580617 -0.620064506323789, 298.54453879162736 0.036171169582628025 M299.07221034165104 -0.9848109126745085 C297.3230698695977 102.49093708886309, 295.82138014882906 205.24210888258105, 298.2836915359653 297.73135378061204 M298.2202504176182 0.014861024033965484 C297.3775868351135 66.88233314894696, 297.42681832987165 134.12799691704873, 298.4629615245531 297.98385205270284 M298.78503972371146 297.3846857761358 C214.2746499803237 297.04743975339534, 130.17110283668708 295.9602264541611, 1.010233197002039 298.752672935424 M298.24755338854055 297.51765303998127 C178.85221404552286 297.4291835128888, 60.71267899641643 297.4082851146434, -0.47229437636118987 298.39467156900184 M0.7350952941707051 299.50060676410646 C3.0772712345317963 190.6564981032498, 1.6936414095026178 83.96371262023169, -0.6170859668261023 -0.2429791627819019 M0.3582614647921307 298.35053450594387 C0.2055469492050738 201.19606997831588, -0.4339417453512656 103.7205808496193, 0.16765029809508197 0.6289590227027899" stroke="#000000" stroke-width="1" fill="none"></path></g><g transform="translate(826.52734375 111.634765625) rotate(0 91 12.5)"><text x="0" y="18" font-family="Virgil, Segoe UI Emoji" font-size="20px" fill="#000000" text-anchor="start" style="white-space: pre;" direction="ltr">sandbox11 (EKS 1.18)</text></g><g transform="translate(174.69140625 157.236328125) rotate(0 41.837890625 41.837890625)"><path d="M-0.5460169371217489 -0.7835718039423227 C20.12774121382645 1.7960085839734894, 38.99289989272875 1.0431368917928558, 84.9546492639929 0.23790345154702663 M0.5502221463248134 -0.2267747549340129 C23.778713507947764 -0.1647492983084885, 49.3779200108671 -1.1044951119166582, 83.73771472554654 -0.40920189302414656 M83.50003796257079 0.6957725044339895 C85.1657715753766 22.130995552587773, 84.49175670902451 38.97061275052183, 85.47231709398329 84.25750616751611 M83.13985939603299 0.5161871584132314 C84.49208781404853 26.35668203249552, 82.9130610255754 54.112792942039235, 84.08969919662923 83.90898298937827 M85.65562998689711 84.95416001044214 C51.82100424579439 82.72823108454435, 17.242354227958273 81.95888371487348, 1.3515362087637186 83.68011448346078 M83.94595305901021 83.13917398173362 C53.1106072616556 84.16625738671141, 24.46036869544114 84.26267299583273, 0.8539103446528316 82.78202798683196 M-0.26716811023652554 83.20393202267587 C-1.163605157830498 63.28493082593522, 1.444297547838905 39.29754545866235, -0.3905425127595663 0.12236658297479153 M-0.6118496479466558 83.08142521698028 C0.29143955585346704 63.03822908654365, 0.3438233661352206 43.7534834642247, -0.8908249260857701 0.9899929137900472" stroke="#087f5b" stroke-width="1" fill="none"></path></g><g transform="translate(89.662109375 278.546875) rotate(0 41.837890625 41.837890625)"><path d="M1.6053763572126627 1.122139012441039 C20.69038533005769 -0.6058516820959267, 41.85290322929432 -2.0715720376066384, 81.9051720444113 -1.076962972059846 M0.719552087597549 -0.5011795787140727 C32.69773711410562 -0.15806234954481624, 66.63580964519133 -0.33363847015982173, 82.80231024604291 0.6811679871752858 M82.30471723712981 1.369034742936492 C84.74041179831114 29.503043235090082, 82.65418456013289 59.852603103586446, 83.0598905030638 82.01353589259088 M83.77322627883404 -0.23101315181702375 C84.5862534316137 32.661598181105, 84.28068512397553 65.0163953737072, 83.00242589693516 84.13953345734626 M84.34052395261824 83.47077933512628 C60.74304518547469 82.37372129091494, 37.592338040035244 83.459640492289, -1.1070672925561666 84.43050227127969 M84.01680659037083 83.30998629052192 C62.88923445316286 82.49094952178977, 41.19609816037627 83.85849283171676, -0.8004539432004094 82.96348902303725 M1.0209630075842142 82.58112034760416 C0.42039819469468065 52.54343349666196, 2.4034420441629116 19.06883220175004, 0.2925432864576578 1.3569805976003408 M0.5281433640047908 83.68410512525588 C0.5923411596616279 63.391903905887375, 0.7647410679658424 43.18206676885529, -0.056799245066940784 0.2436413737013936" stroke="#5f3dc4" stroke-width="1" fill="none"></path></g><g transform="translate(263.521484375 280.17578125) rotate(0 41.837890625 41.837890625)"><path d="M0.43804597295820713 0.9171606656163931 C26.180603235572562 -1.9861180509344196, 52.76373094801602 -1.0738057221189594, 82.83170991577208 -0.1673745159059763 M-0.6160169960930943 0.2435815902426839 C27.81082022818482 -0.7010402967999471, 56.14511575782162 -0.5782975544999135, 82.96805532556027 -0.6380986301228404 M82.37398582138121 1.0328651424497366 C84.80299065111878 26.35538266675685, 81.9451150059581 57.796405668969236, 81.77124511636794 81.81207469664514 M84.6017368612811 0.8033121498301625 C83.89858267071624 29.520499882576768, 83.89628851774116 58.1536698617223, 82.73099331837147 83.81753360945731 M83.359648341313 83.62414602003992 C53.66958061227669 83.39632269868362, 25.119033528381983 85.13542106875884, 0.5047046486288309 82.27387521229684 M83.16155748348683 83.58034789282829 C55.42573959764813 84.26529205942151, 29.419584607012077 85.05334661507604, -0.9018254103139043 83.66139998752624 M-0.9882062133401632 81.97365710698068 C0.6302408385465605 59.30867714165106, -1.0155414533426301 36.30504933391421, -1.3960731085389853 -1.8450222853571177 M0.8932483373209834 83.66627207119018 C1.6184947861012553 63.91543615084629, -0.2057579087439444 42.79060444955758, -0.8164177061989903 0.7009040685370564" stroke="#e67700" stroke-width="1" fill="none"></path></g><g transform="translate(123.5 307.884765625) rotate(0 8 12.5)"><text x="8" y="18" font-family="Virgil, Segoe UI Emoji" font-size="20px" fill="#e67700" text-anchor="middle" style="white-space: pre;" direction="ltr">C</text></g><g transform="translate(210.029296875 186.57421875) rotate(0 6.5 12.5)"><text x="6.5" y="18" font-family="Virgil, Segoe UI Emoji" font-size="20px" fill="#e67700" text-anchor="middle" style="white-space: pre;" direction="ltr">A</text></g><g transform="translate(297.62109375 309.603515625) rotate(0 7.5 12.5)"><text x="7.5" y="18" font-family="Virgil, Segoe UI Emoji" font-size="20px" fill="#e67700" text-anchor="middle" style="white-space: pre;" direction="ltr">B</text></g><g><g transform="translate(308.10518251000076 273.41471354166663) rotate(0 -18.19511867092035 -32.86422877843154)"><path d="M-0.5207130577415228 -0.1400102410465478 C-6.489100674313355 -10.595456259771069, -30.61182763090754 -53.21560393683056, -36.83093431791394 -63.73129890269863 M1.4067738576047124 -1.2591195629350842 C-4.633337029979426 -11.988580616692829, -31.648148423586285 -54.95658733246292, -37.79701119944557 -65.58844731581661" stroke="#e67700" stroke-width="1" fill="none"></path></g><g transform="translate(308.10518251000076 273.41471354166663) rotate(0 -18.19511867092035 -32.86422877843154)"><path d="M-14.640703833705246 -46.859420737221654 C-18.4359836447898 -52.67304140889161, -22.635042339224 -54.669799641223925, -38.7555216635029 -65.84705782701525 M-13.54708061930394 -46.57323837184143 C-22.84980640472095 -52.84295310483663, -29.748848844445146 -58.603477998685975, -36.818370029368545 -65.60052652769986" stroke="#e67700" stroke-width="1" fill="none"></path></g><g transform="translate(308.10518251000076 273.41471354166663) rotate(0 -18.19511867092035 -32.86422877843154)"><path d="M-32.18842529995494 -36.21999059605531 C-32.123295172969634 -44.244404737747644, -32.55048374112831 -48.52810083761139, -38.7555216635029 -65.84705782701525 M-31.09480208555364 -35.93380823067508 C-34.51774318381364 -45.817241453734056, -35.615496684408605 -55.09516936285805, -36.818370029368545 -65.60052652769986" stroke="#e67700" stroke-width="1" fill="none"></path></g></g><g><g transform="translate(162.70703125 201.193359375) rotate(0 -18.31149202249935 29.885334683405233)"><path d="M0.11314210630953303 -0.917386332526803 C-5.9987005299578104 8.942343406503399, -30.753483878200253 49.25784039559464, -36.73612615130842 59.748300191387536 M-1.2865970172174275 1.2153818975575268 C-7.006887310712287 11.12824960715448, -28.561226705082998 50.84384393837924, -34.42089175062254 60.688055699337276" stroke="#e67700" stroke-width="1" fill="none"></path></g><g transform="translate(162.70703125 201.193359375) rotate(0 -18.31149202249935 29.885334683405233)"><path d="M-31.00456208956491 29.839034948646763 C-32.68426226720439 40.14914914101847, -30.345917849623497 47.1232770227582, -35.05065273681655 61.49549112806097 M-28.727772103036454 30.76847466375653 C-31.985420322330125 40.156869834063656, -33.055083544065894 48.606474484145195, -33.746369601245966 60.54672825580463" stroke="#e67700" stroke-width="1" fill="none"></path></g><g transform="translate(162.70703125 201.193359375) rotate(0 -18.31149202249935 29.885334683405233)"><path d="M-13.14172116345054 39.94046635385727 C-20.133070651967333 47.29176841276032, -23.056716760556586 51.29024216563929, -35.05065273681655 61.49549112806097 M-10.864931176922084 40.86990606896703 C-19.1646936951483 47.550011169228554, -25.339181663689004 53.11283889346933, -33.746369601245966 60.54672825580463" stroke="#e67700" stroke-width="1" fill="none"></path></g></g><g transform="translate(318.609375 161.884765625) rotate(0 20.71875 27.880859375)"><path d="M1.5002890769392252 0.4540329333394766 C16.323460338573206 0.1748049440485192, 31.614765526598784 0.8541041197878075, 40.103307420387864 1.1899895425885916 M0.8964853761717677 0.24559318739920855 C15.57310652487795 0.7424826315260725, 32.38930267816177 0.662365495286067, 41.403804081492126 -0.5356822935864329 M42.46769636310637 0.6086435075849295 C41.25910446869875 15.531492005227847, 40.8169201992705 36.02926687921354, 39.65499853529036 56.63351575098932 M41.048548239283264 0.9095584424212575 C40.37081146903893 13.240907301971674, 42.01275292702576 25.979754521202267, 42.370277154259384 55.84773200470954 M43.275475734844804 56.68841544352472 C29.80685944489087 56.48417990499467, 16.175639776641038 55.12136863761872, -1.1110803540796041 54.80194697342813 M40.87098597269505 55.5631067128852 C32.17364404148539 55.236369085625626, 20.590425454697105 56.74624637992761, 0.5642234859988093 55.393611398525536 M-0.2682063039392233 57.17522129975259 C-0.35831745296218287 42.11240755183644, 0.36251936525604833 33.97205435995056, -1.2832471188157797 0.37832764349877834 M0.19164891820400953 54.846649375744164 C0.8660903392001273 43.16609450922442, 0.6891250131293418 33.013216225041106, 0.808610606007278 0.44256257731467485" stroke="#e67700" stroke-width="1" fill="none"></path></g><g transform="translate(325.91796875 177.1796875) rotate(0 13.5 12.5)"><text x="13.5" y="18" font-family="Virgil, Segoe UI Emoji" font-size="20px" fill="#e67700" text-anchor="middle" style="white-space: pre;" direction="ltr">IG</text></g><g transform="translate(823.60546875 167.03515625) rotate(0 20.71875 27.880859375)"><path d="M0.8880709949880838 0.07499906979501247 C10.512467746931362 0.2831987167958869, 19.576495007297492 -0.7733476732607232, 39.99846124090254 0.16005960665643215 M0.39808573108166456 -0.0036749569699168205 C9.385251921013696 -0.09389040637470314, 17.39685029325774 -0.1560756044433219, 41.5344546912238 0.09990006405860186 M40.240337366238236 -0.23749431408941746 C41.58264436740046 16.7102062687718, 41.76622875947123 36.77989133344454, 43.0295548979193 53.843696212396026 M41.255225765518844 -0.559572639875114 C42.73288608776147 14.668778048382594, 42.000557106600354 28.730805074836102, 41.23246367555112 56.453301277942955 M40.57390599884093 57.21568880043924 C32.162824754294704 53.90229969564185, 21.564542963483834 56.14946805778251, 0.9170118514448404 56.840799843892455 M40.71178730111569 54.88403090555221 C27.466093734308377 55.201583982628655, 14.311177564656823 55.15316030494578, -0.3827340127900243 54.808187362737954 M-1.0979784782975912 55.24259284697473 C0.7835992626069128 37.36262091475328, 0.37227017201166746 20.88576139403085, -1.9099076446145773 -1.1519131902605295 M-0.33504338283091784 54.882586118765175 C-0.17220694103252754 39.75887203738421, 0.9182198914049877 23.02846564185529, 0.9249150929972529 0.5764540703967214" stroke="#e67700" stroke-width="1" fill="none"></path></g><g transform="translate(830.21484375 182.673828125) rotate(0 13.5 12.5)"><text x="13.5" y="18" font-family="Virgil, Segoe UI Emoji" font-size="20px" fill="#e67700" text-anchor="middle" style="white-space: pre;" direction="ltr">IG</text></g><g transform="translate(933.267578125 171.3203125) rotate(0 41.837890625 41.837890625)"><path d="M-1.0558656696230173 0.3082616273313761 C25.754933438889932 -1.398958134144523, 51.198886462808154 -1.8242528314292215, 82.15849403105676 -0.9713456090539694 M0.20800623018294573 0.6687371609732509 C26.451019376419936 0.359821299965588, 52.32925305030585 1.009263406450955, 83.54591238219291 -0.9001179160550237 M82.15049699507654 1.0037305895239115 C82.87661975815627 28.775697701643, 83.64065098955962 57.84459512687244, 84.40627477131784 85.32854878343642 M83.63087022025138 0.09968300443142653 C82.67406863677871 28.278282732082516, 82.12226418364418 56.33098505220187, 83.17672028858215 83.50411264877766 M85.20005080662668 81.69154917635024 C62.85309533439831 83.90041488171413, 43.36964045726272 82.61702310801341, 1.0020684357732534 82.52124446071684 M82.98420467693359 84.58302276115865 C52.36048511790904 83.04804710930995, 21.238258059189675 84.27293057626895, -0.5471270708367229 83.30494489055127 M-0.48587855137884617 81.8322276417166 C1.397336460682891 63.365651701987005, -2.1102349385289925 45.65511252068027, 1.4589975830167532 -0.7276701983064413 M0.45822566468268633 82.68684114795178 C1.5435037357839974 64.73305047637878, 0.0636273069414528 44.23923886211778, 0.5616566808894277 -0.27035678643733263" stroke="#087f5b" stroke-width="1" fill="none"></path></g><g transform="translate(968.36328125 200.896484375) rotate(0 6.5 12.5)"><text x="6.5" y="18" font-family="Virgil, Segoe UI Emoji" font-size="20px" fill="#e67700" text-anchor="middle" style="white-space: pre;" direction="ltr">A</text></g><g transform="translate(719.16796875 662.376953125) rotate(0 314 38)"><text x="0" y="15" font-family="Cascadia, Segoe UI Emoji" font-size="16px" fill="#000000" text-anchor="start" style="white-space: pre;" direction="ltr">ServiceEntry + Service</text><text x="0" y="34" font-family="Cascadia, Segoe UI Emoji" font-size="16px" fill="#000000" text-anchor="start" style="white-space: pre;" direction="ltr">================</text><text x="0" y="53" font-family="Cascadia, Segoe UI Emoji" font-size="16px" fill="#000000" text-anchor="start" style="white-space: pre;" direction="ltr">service-a.service-a.svc.cluster.local: Sandbox3 Ingress Gateway NLB</text><text x="0" y="72" font-family="Cascadia, Segoe UI Emoji" font-size="16px" fill="#000000" text-anchor="start" style="white-space: pre;" direction="ltr">service-a.service-a.svc.cluster.local: Sandbox11 Pod IPs</text></g><g transform="translate(10 660.564453125) rotate(0 319 38)"><text x="0" y="15" font-family="Cascadia, Segoe UI Emoji" font-size="16px" fill="#000000" text-anchor="start" style="white-space: pre;" direction="ltr">ServiceEntry + Service</text><text x="0" y="34" font-family="Cascadia, Segoe UI Emoji" font-size="16px" fill="#000000" text-anchor="start" style="white-space: pre;" direction="ltr">================</text><text x="0" y="53" font-family="Cascadia, Segoe UI Emoji" font-size="16px" fill="#000000" text-anchor="start" style="white-space: pre;" direction="ltr">service-a.service-a.svc.cluster.local: Sandbox11 Ingress Gateway NLB</text><text x="0" y="72" font-family="Cascadia, Segoe UI Emoji" font-size="16px" fill="#000000" text-anchor="start" style="white-space: pre;" direction="ltr">service-a.service-a.svc.cluster.local: Sandbox3 Pod IPs</text></g><g transform="translate(412.3125 155.373046875) rotate(0 44.177734375 35.62109375)"><path d="M1.2316935081034899 -0.9226703364402056 C24.845631735639838 -1.2054809434707932, 45.04697421427482 -2.1554463608558945, 87.49089628644288 -1.7773883659392595 M-0.029353455640375614 -0.9206572165712714 C26.075788073088553 0.6633749641386748, 50.42316192451035 -0.7326888702901124, 89.14070059265941 -0.07372298743575811 M87.04278332181275 -0.6383040267974138 C88.36642386325394 15.523177921248863, 87.19411774285828 31.64605322561838, 86.85588205046952 72.69261446408927 M87.81591750588268 -0.6781047871336341 C88.25963694088983 26.537854840233194, 88.51754912965822 53.146607169321214, 87.57161818351597 71.99149274919182 M87.89695060439408 70.11278095655143 C62.79533006988167 69.75358648533194, 38.6450053880304 69.39928223127691, -0.37735110335052013 72.12707766704261 M88.08830390777439 70.92808842752129 C68.45225505418094 70.26649719874123, 47.344266159999094 70.35235742131928, -0.3986263731494546 71.14852920267731 M0.2578794378787279 71.34053334407508 C-0.9945153250381554 57.694500102393064, 0.987578426392356 40.94870299047179, -1.4853534679859877 0.5027468483895063 M-0.2609308222308755 71.85046759340912 C0.6700986870063207 50.360919197137264, -0.4040413550602534 26.842593678367848, -0.9603712121024728 -0.07877939846366644" stroke="#000000" stroke-width="1" fill="none"></path></g><g transform="translate(440.05859375 180.90234375) rotate(0 14 9.5)"><text x="14" y="15" font-family="Cascadia, Segoe UI Emoji" font-size="16px" fill="#000000" text-anchor="middle" style="white-space: pre;" direction="ltr">NLB</text></g><g transform="translate(672.255859375 153.830078125) rotate(0 44.177734375 35.62109375)"><path d="M0.7460007350891829 -1.798516510054469 C32.04294268447957 -1.5670257451779253, 66.2981041620682 -1.095752382541359, 87.02326169423759 1.0332112926989794 M-0.9957893183454871 0.25381414499133825 C18.162379401219734 -1.2684886687605832, 35.92000586156865 0.12306285564012787, 89.25953590963036 0.22586251702159643 M89.744026331231 -0.9369963984936476 C86.62347928032635 27.330212451004627, 90.34788748965023 49.954173696132784, 88.8460229318589 70.78310001082718 M88.1898754844442 0.647478356026113 C89.13342583749436 19.844453705952766, 88.7946148869767 38.293030275056665, 88.14802149031311 71.55551515426487 M89.86202987842262 70.45441758818924 C57.75974220956159 69.63905680699256, 24.038891842336298 71.3390708617678, 1.3704881947487593 70.07783621735871 M87.3896022150293 71.89867792930454 C63.06882730734469 70.23514114504756, 38.308752816225024 71.58852471595706, 0.6039442429319024 72.23473806586117 M-0.2904305178672075 71.87065953202546 C1.5635734265029169 55.870800526440874, 0.519140846031878 38.90799176804867, 0.337074963375926 -1.0544428806751966 M-0.001681148074567318 72.091488792561 C0.05236340215902602 46.375236567889075, -0.8390693897892925 21.131960074113152, -0.14866629149764776 -0.2705568829551339" stroke="#000000" stroke-width="1" fill="none"></path></g><g transform="translate(704.35546875 180.529296875) rotate(0 14 9.5)"><text x="14" y="15" font-family="Cascadia, Segoe UI Emoji" font-size="16px" fill="#000000" text-anchor="middle" style="white-space: pre;" direction="ltr">NLB</text></g><g transform="translate(634.033203125 10) rotate(0 245.115234375 219.982421875)"><path d="M0.4811212536051764 -0.7522587870288358 C156.8350585241999 0.21228330815242674, 312.7321832669514 0.0019916530242236885, 489.47830176844025 -0.33646677054212615 M-0.10490773440833027 -0.2948274963865773 C101.61479564522921 0.10002257944041598, 204.01318345162235 0.34052744871256446, 489.84938569096965 -0.09603668538271391 M490.5529580111072 0.8604923494600626 C489.62365616185804 136.80149751126686, 488.1408548273007 273.60766083593893, 490.041051638847 440.6224155091376 M490.03378425048123 -0.14611313797053477 C492.0054622342459 114.26727333212537, 492.3759701713122 229.79469054307643, 490.2661718776294 440.38845533216124 M489.92764269029624 439.8191724146514 C331.11072297690725 442.00693115949684, 169.93662496188648 441.21466899869506, -0.14806782417250533 439.875903812744 M490.3320983481681 440.18354157316116 C314.4899779806464 440.7773439031979, 139.0926989397584 440.5887725639916, 0.1264899529429365 439.84543399286343 M-0.15330294148502954 439.8874122011384 C0.4231032804613949 333.25839605563857, 1.0554682805913154 227.8663036546793, -0.9544838756685374 0.16398242277955352 M-0.19505624768627922 440.415981460616 C-1.280364239899526 325.9878422381053, -1.355607072851764 212.16802636407252, 0.03308847734993419 0.2119787492984254" stroke="#000000" stroke-width="1" fill="none"></path></g><g transform="translate(550.0234375 182.697265625) rotate(0 43.482421875 37.48046875)"><path d="M0 0 C0 0, 0 0, 0 0 M0 0 C0 0, 0 0, 0 0 M0.658797980132525 5.617437264372699 C-0.1285140978586914 4.31913394549888, 1.2588347403806743 4.964128060632443, 4.395970935704655 1.2523918386397177 M0.030559478732769763 6.316736196776025 C0.9976402753744243 4.982523240870443, 2.8783691853157647 2.73583766221743, 5.258951597245878 0.5919050950405412 M-0.4151918849815024 13.652698651372969 C4.015132662904394 5.433519684010646, 8.727844938550072 1.313020424928673, 12.683082859170568 2.391305920024193 M-1.4191732651461257 11.26749672484356 C3.8291502805225788 8.703093809186566, 6.8421793234068815 3.4749339443694387, 10.988610422563685 0.512318469126499 M-3.676283164932416 18.295662428159886 C5.426789257950082 14.549010503477264, 6.839507804717631 11.395479712082395, 18.98217714904197 3.711126741666811 M1.3405459327110787 17.653034777288013 C5.757362696863957 13.71349808055919, 7.958731701262403 8.107594110372286, 17.237174545883615 -1.3095303152757714 M0.2582080180011008 25.919594118087648 C0.3633608753112467 20.614605279155455, 11.978837769187548 10.552499192716414, 17.805647308284307 -1.8015600131661174 M1.8883441744557832 22.222002342059373 C7.736137243371926 16.26551663227658, 10.700191542249817 12.049467937370515, 19.289943356344367 -1.3470241060317036 M0.6594162034382478 27.820051641900292 C10.092885932325126 24.054083727185244, 13.211141819854081 10.201803870925247, 30.04761669659278 2.442137464323336 M1.061316221072282 31.935802854363075 C8.508206941241522 21.797614652310322, 13.47120731072924 12.011959188764582, 27.819143295895667 -0.1973875859740435 M-2.0298564155679664 33.12159788031255 C4.870549902083352 28.584987509283117, 15.474652283945051 12.89484653622753, 29.404602786010898 -1.7230837753728743 M0.6133604570198337 35.8432545660076 C4.021105107252449 28.61169913080995, 14.193278139330193 20.961591990789067, 30.779653652987278 1.357316041482914 M-1.6754013959645278 44.819889464039136 C8.968091302924682 35.79854174728184, 18.56622965514839 27.167060328079266, 34.265293182620155 -3.1975946108717004 M1.5464221417577022 41.46387885380142 C6.887538814929936 32.5323379998641, 18.898912998595836 21.530758029504874, 34.93766447510694 0.8370650188159665 M-3.794781131669957 47.42080551446311 C11.579342568622456 34.25763646604338, 15.538128682353964 25.822592242636635, 45.58401785846405 -2.2795104916811937 M0.8298163227736168 49.364528960221335 C13.973306581128865 34.05021870469173, 29.03441118038509 15.59434565334849, 43.80664880070441 -1.6612976073891872 M-0.3399156506407408 55.03248058207642 C10.605504123448021 34.64951502441, 26.22464414046362 24.286719837459373, 50.25727691962409 -3.2520147964183046 M0.6801410385173412 54.18892293185304 C20.43871127315128 32.53175836190388, 37.756557736062476 12.7871547016168, 47.08639042726743 -1.1138873446557476 M1.679445153204611 62.77798128826211 C22.997030789473513 37.317666931130184, 41.60620126423613 17.811464422347434, 54.99721283814377 0.9539645254089244 M2.000305086476615 59.00782026117335 C11.23991941837949 43.56637170822679, 26.27665545147573 29.37809636913899, 54.59895614324576 0.7050451036019929 M-2.5868652770808964 70.88733926373492 C13.682144890417442 51.357940186101985, 28.785402512511467 37.719969437173276, 57.70813822010459 4.172431595183536 M1.659441226110694 68.34855482499073 C15.666278834986919 50.56759928653235, 29.495428897625928 34.20279813505499, 57.72772349612714 1.5732904798608267 M-1.1726072484442582 72.33667988920955 C18.793958891174007 52.8748132217421, 33.46093206164105 36.51451446342842, 65.36000803755005 2.33964596339748 M1.2122290918788323 74.77166362511365 C17.100411462398345 51.24773016341503, 38.86392653903478 31.58588973911062, 63.353353024361326 -0.9044956692935457 M-0.6701348178324622 74.22322229540075 C23.759749141573977 51.25196607931545, 54.109029349600576 21.258706209684583, 65.36494739656165 0.906799251433803 M3.5863951932402927 77.18338678835059 C28.70059742128091 44.724317884950835, 55.22709019560659 15.80362317731582, 67.29281602543607 1.0533836486156716 M8.362781294779012 72.87615062235494 C21.749743857799697 55.57541498254983, 43.61761382377105 29.539249560589326, 75.45072376918289 -1.8226614902155234 M5.738390001625845 74.88403882584174 C30.564978009092606 52.45509835404441, 56.3912302838076 25.16372070171313, 76.23536678780111 1.6804902301742004 M14.843127300519129 77.797548142569 C25.746703495704423 54.92669292164734, 39.05466359504598 38.18130622627329, 83.03727476149527 0.7196428598325184 M14.156061544570704 76.44644275617772 C36.59090801500151 50.77914452923878, 60.103913027685266 18.889449621695846, 81.18157035894421 0.012427317858808351 M16.908826921431388 73.9432056565349 C41.376179123774705 52.44729165255946, 61.13159004987763 22.704513812018945, 87.11018034554229 -1.2956531479300963 M16.66733598552462 76.93423850094425 C42.486056966234415 47.680045563919904, 62.974647534000695 19.25707344650025, 83.37927477731512 0.1616629582552207 M26.01497401359728 76.90884603563568 C42.554255326447596 50.70858169904896, 68.48402162626925 30.671306929895856, 92.28507256942444 -1.1735637316747898 M22.59895024697533 78.02560742761811 C50.01002499941233 47.1796522421247, 73.658549832194 17.79336902422714, 90.45052078242057 3.1771258042857653 M24.807304799060326 80.2674475803633 C47.11494225831974 59.50913305798653, 61.10636501524195 33.2854336206128, 86.02504876023268 8.397281060204257 M30.712424242372613 78.28809570778503 C50.25007134242094 51.1497909520787, 72.36498661589002 24.728980746881568, 89.67145501775776 8.073738053650011 M30.498725633901998 74.9819206621008 C53.5454625080161 59.192510036679295, 72.34459264101923 37.77421342640599, 85.17020278496307 13.927249127085155 M32.643088644204184 77.5287909589218 C48.65723082154775 60.73277101047482, 63.80830544867852 42.60757499039599, 88.56436129172903 13.352529226819819 M36.74278524016582 76.74243108134013 C52.695429896741075 53.90974542203067, 74.82794079382211 40.50019004918288, 88.0975034996971 16.84018834035092 M40.83605711591982 75.0691456026141 C54.05410620171345 61.15708210712029, 63.716535257120995 46.87862431039388, 87.1200390268221 21.652618191271955 M45.010202473933276 73.37907670946436 C53.133579636824166 64.00181342043346, 66.68359644492338 50.747796284698616, 91.87456212647825 25.037202000493526 M43.98525408000725 78.09515350633876 C56.582693615557325 61.02875643156375, 71.22243337738477 48.483322309243476, 89.01407063648671 26.252488618592142 M46.46233855724788 76.19921084696541 C58.64757486296094 65.93395164994878, 63.93781564145985 56.523045765155025, 91.63616002138806 32.30932547889602 M50.96938694991625 75.93217334168146 C55.91825530186081 66.901652022434, 64.70805609333593 56.54896375493229, 89.04584929321064 31.42016562625718 M53.327724846191124 75.40011886522635 C60.528083502528744 66.27611472870355, 70.48368575048167 58.40154897260712, 85.80166187747952 38.429559156273115 M54.290973898134546 76.395105226119 C66.03609937347633 65.33556876501403, 72.0995897413938 55.38113363716761, 88.41849213145312 39.44274871607553 M56.7755350628065 75.40634156473912 C67.41676038449299 67.80611918097217, 76.3607956841801 59.736531403139686, 86.7318386378056 40.791997163339545 M62.01231608811189 76.06321408123709 C69.75132301649705 68.59456249944019, 77.31370545574752 59.38197824811695, 89.4581631606734 43.20304051485567 M66.29211306317552 74.28235181688677 C72.86983603681944 73.06440151725232, 78.17265036533816 61.62253579985327, 87.38569040844783 54.05095612147837 M65.19452544233604 76.63030627451252 C74.32821170148763 67.3581327723705, 81.8272609972417 55.59674414638757, 88.33339617835924 48.756175515074425 M67.5544450693417 75.06987792216127 C75.70524606383206 72.06987843342509, 77.66493865984891 68.25496644822321, 86.53785966144972 54.21300808118151 M69.83349687425677 75.179552977531 C73.69439313944861 72.7826872734567, 78.65292141740825 69.35774871546992, 88.3350079729604 56.35915301331745 M77.72936118712393 73.3851538279862 C81.33542485547551 75.42168349385727, 85.7560470906629 67.28464841896252, 91.98366525189581 65.87480279306666 M76.29699737515044 76.5515860560187 C80.58927111945867 74.07431713133768, 83.3581303442129 66.8575866637011, 89.28563398651409 62.80759155188473 M80.81843787917093 76.16541208727989 C83.59419876289529 75.41964604654531, 82.83038522012676 72.70032906955636, 89.53890576736168 68.06986313287244 M82.58678426054463 76.01358737732056 C83.82763214417987 74.57789434062238, 86.84236364202002 71.47957697251766, 88.7154646018623 69.74136331185774" stroke="#fab005" stroke-width="0.5" fill="none"></path><path d="M-0.5305789671838284 -3.5773249305784702 C32.96557527825681 -0.7220808965288597, 69.51849603370721 -3.7355027896486717, 83.56053853407502 -1.2170779146254063 M0.5173423569649458 0.6329130548983812 C30.722951919104894 -0.686210676431001, 64.31091431022433 2.5240553772456042, 87.27467724494636 -0.027365444228053093 M85.31540513411164 3.94857245311141 C88.02293379625698 14.918421710321123, 88.94836778959652 41.44277154736482, 89.65408504381776 71.32743137702344 M86.94531675986946 1.4126594085246325 C84.3390474996886 20.195417325707236, 85.64871228555057 39.68716152523847, 87.54331746511161 74.46563965268432 M85.67149436846375 75.69294136390089 C61.70537354535445 75.40267990650557, 43.000364935379906 75.86500416817091, 0.525925163179636 77.89448934420942 M87.20011725835502 75.84845930524169 C67.91690630767589 72.55526819982964, 46.286922209413746 73.63209232845742, -0.07441201992332935 75.01832378096877 M1.984588149935007 73.01552301272748 C-2.610690911090205 56.457466103423926, 3.5617752477766773 48.23003282082935, 0.7753020562231541 0.6055559478700161 M-1.1067449171096087 75.27704370208083 C-1.2625079402590926 54.44124253234257, 0.7127642979954545 34.58456924651544, -1.8048906046897173 0.12562102265655994" stroke="#000000" stroke-width="1" fill="none"></path></g><g transform="translate(565.181640625 210.884765625) rotate(0 26 10)"><text x="26" y="14" font-family="Virgil, Segoe UI Emoji" font-size="16px" fill="#000000" text-anchor="middle" style="white-space: pre;" direction="ltr">peering</text></g><g><g transform="translate(579.7649823740958 426.46262563844743) rotate(92.3974354638882 -65.49284725585926 -150.9617749178542)"><path d="M0.06588751673698434 0.45632041096687326 C-21.65790931293885 -49.81774065083799, -108.45241093980869 -250.3149544033675, -130.0208794003439 -300.733308678063 M-1.3586602663155647 -0.3497153186146169 C-23.28242096693399 -51.02979065030788, -109.63829178491396 -252.27922848012176, -131.05158202845536 -302.37987024667524" stroke="#e67700" stroke-width="1" fill="none"></path></g><g transform="translate(579.7649823740958 426.46262563844743) rotate(92.3974354638882 -65.49284725585926 -150.9617749178542)"><path d="M-109.75753898362235 -280.7704883040386 C-115.88384065760124 -286.78086974880625, -124.79553504343892 -294.0781296242845, -132.63474174339257 -303.08246998074316 M-110.22350742856578 -279.5332941682535 C-117.22355084022358 -288.91342597759353, -125.1131468553961 -296.0181840221312, -131.99971274036847 -301.59746500435136" stroke="#e67700" stroke-width="1" fill="none"></path></g><g transform="translate(579.7649823740958 426.46262563844743) rotate(92.3974354638882 -65.49284725585926 -150.9617749178542)"><path d="M-128.62038033338553 -272.6888289076334 C-128.64318855291364 -281.3508566286343, -131.39003233460545 -291.28940589888634, -132.63474174339257 -303.08246998074316 M-129.08634877832895 -271.4516347718483 C-129.6005614998899 -283.505597307254, -131.06902297640795 -293.3614479002402, -131.99971274036847 -301.59746500435136" stroke="#e67700" stroke-width="1" fill="none"></path></g></g><g><g transform="translate(796.091658070527 208.18837729469863) rotate(105.36104661979788 -7.591170808522065 -21.279483246763277)"><path d="M0.5298767387866974 0.8800579726696014 C-2.0849751660718687 -6.175654866891629, -13.100924800581819 -34.43811594345931, -15.71221835583101 -41.72873478887991 M-0.6510767026897519 0.2964844629820438 C-2.910068151022039 -7.149131396543881, -10.999134212893953 -36.43465766253273, -13.58910448393437 -43.43902446619623" stroke="#e67700" stroke-width="1" fill="none"></path></g><g transform="translate(796.091658070527 208.18837729469863) rotate(105.36104661979788 -7.591170808522065 -21.279483246763277)"><path d="M1.5604665829924826 -27.479641764595385 C-2.7659172560904306 -31.77628534943085, -8.735946138446897 -35.321121938831595, -13.133856813522307 -44.17872600547426 M0.5165399416474585 -24.862546130254145 C-6.319960908659151 -31.80954542244261, -11.439636181799779 -39.834795248736, -14.171381916018454 -42.552948596993616" stroke="#e67700" stroke-width="1" fill="none"></path></g><g transform="translate(796.091658070527 208.18837729469863) rotate(105.36104661979788 -7.591170808522065 -21.279483246763277)"><path d="M-13.1007814504757 -22.85563014038265 C-13.080355864762888 -28.595312106805714, -14.68024170235731 -33.51844829200641, -13.133856813522307 -44.17872600547426 M-14.144708091820725 -20.23853450604141 C-15.25667611393575 -29.06876156410096, -14.609351298294264 -38.91286578713402, -14.171381916018454 -42.552948596993616" stroke="#e67700" stroke-width="1" fill="none"></path></g></g><g><g transform="translate(908.3916627117478 223.64048338511816) rotate(129.77363723077536 -7.164189785931285 -21.560141265352343)"><path d="M-0.8776876151561737 0.34112879633903503 C-3.108500213374115 -6.7532131936128215, -11.88347694749344 -34.612799514321125, -14.362489008602006 -41.74341469763235 M0.8623876575473695 -0.5253825309220701 C-1.4209438481579646 -8.029907844793698, -12.802526236934176 -36.70105010809701, -15.19076722941014 -43.461411327043706" stroke="#e67700" stroke-width="1" fill="none"></path></g><g transform="translate(908.3916627117478 223.64048338511816) rotate(129.77363723077536 -7.164189785931285 -21.560141265352343)"><path d="M0.02498635187487963 -26.035911474918215 C-2.5769236695085045 -32.18343787765771, -6.943055960768449 -35.49852240992786, -14.736121327491729 -45.24907982341402 M-0.2059572534288847 -25.91468309292683 C-5.489327142986256 -30.24070608449952, -9.25887768586947 -35.933655315144094, -16.080765322657555 -42.55937047294729" stroke="#e67700" stroke-width="1" fill="none"></path></g><g transform="translate(908.3916627117478 223.64048338511816) rotate(129.77363723077536 -7.164189785931285 -21.560141265352343)"><path d="M-14.358307678533171 -20.608708674712823 C-13.854209755140777 -27.83705340165755, -15.077128942093584 -32.33815658342993, -14.736121327491729 -45.24907982341402 M-14.589251283836935 -20.487480292721436 C-15.96654785244536 -26.226015540411943, -15.813765692897828 -33.39896615189218, -16.080765322657555 -42.55937047294729" stroke="#e67700" stroke-width="1" fill="none"></path></g></g></svg>